<?xml version="1.0" encoding="UTF-8"?>
<svg version="1.1" xmlns="http://www.w3.org/2000/svg" width="16" height="16">
<path d="M0 0 C5.28 0 10.56 0 16 0 C16 5.28 16 10.56 16 16 C10.72 16 5.44 16 0 16 C0 10.72 0 5.44 0 0 Z " fill="#448E40" transform="translate(0,0)"/>
<path d="M0 0 C5.28 0 10.56 0 16 0 C16 3.3 16 6.6 16 10 C14.02 10 12.04 10 10 10 C10 9.01 10 8.02 10 7 C10.66 7 11.32 7 12 7 C12 6.34 12 5.68 12 5 C12.66 5 13.32 5 14 5 C14 4.34 14 3.68 14 3 C13.236875 3 12.47375 3 11.6875 3 C7.79166667 3 3.89583333 3 0 3 C0 2.01 0 1.02 0 0 Z " fill="#3D9341" transform="translate(0,0)"/>
<path d="M0 0 C4.66666667 0 9.33333333 0 14 0 C13.67 0.99 13.34 1.98 13 3 C12.34 3 11.68 3 11 3 C11 3.66 11 4.32 11 5 C10.34 5 9.68 5 9 5 C9 5.66 9 6.32 9 7 C7.68 7 6.36 7 5 7 C4.67 5.68 4.34 4.36 4 3 C3.01 3 2.02 3 1 3 C0.67 2.01 0.34 1.02 0 0 Z " fill="#95BC5D" transform="translate(1,2)"/>
<path d="M0 0 C4.95 0 9.9 0 15 0 C15 1.65 15 3.3 15 5 C12.69 5 10.38 5 8 5 C8.639375 4.71125 9.27875 4.4225 9.9375 4.125 C12.15206079 3.17176549 12.15206079 3.17176549 13 1 C9.04 1 5.08 1 1 1 C2.25541557 3.51083114 3.50063488 3.87125446 6 5 C4.35 5 2.7 5 1 5 C0.67 3.35 0.34 1.7 0 0 Z " fill="#C9D46E" transform="translate(1,10)"/>
<path d="M0 0 C3.96 0 7.92 0 12 0 C11.67 0.99 11.34 1.98 11 3 C7.7 3 4.4 3 1 3 C0.67 2.01 0.34 1.02 0 0 Z " fill="#7AAF54" transform="translate(2,11)"/>
<path d="M0 0 C0 2.31 0 4.62 0 7 C-1.98 7 -3.96 7 -6 7 C-6 6.01 -6 5.02 -6 4 C-5.34 4 -4.68 4 -4 4 C-4 3.34 -4 2.68 -4 2 C-1 0 -1 0 0 0 Z " fill="#2D8C3D" transform="translate(16,3)"/>
<path d="M0 0 C3.34252724 -0.07427838 5.8035914 -0.06546953 9 1 C9 1.66 9 2.32 9 3 C5.71303767 3.79953138 4.28976808 4.09658936 1 3 C0.67 2.01 0.34 1.02 0 0 Z " fill="#74AC53" transform="translate(1,2)"/>
</svg>
