<svg xmlns="http://www.w3.org/2000/svg" width="254" height="106" viewBox="0 0 254 106" fill="none"><g clip-path="url(#clip0)"><path d="M90.2 80.6C90.2 82.9 89.9 85.2 89.2 87.4C88.1 90.4 86.2 92.6 83.6 94.2C81.4 95.6 79.1 96.4 76.7 97.2C74 98 71.2 98.6 68.5 99.1C64.1 99.9 59.7 100.6 55.3 101.3C53.2 101.6 51.1 102 49.1 102.6C48.1 102.9 47.1 103.4 46.3 104L46.2 104.1C46.2 104.1 46.2 104.1 46.1 104.1C45.1 103.1 43.8 102.8 42.6 102.4C40.5 101.8 38.4 101.5 36.3 101.2C30.6 100.3 25 99.5 19.4 98.2C16.3 97.5 13.3 96.7 10.5 95.2C8.5 94.2 6.7 92.9 5.3 91.2C3.7 89.2 2.8 86.9 2.4 84.4C2.1 83 2 81.7 2 80.4C2 76.3 2 72.3 2 68.2C2 68.1 2 67.9 2 67.8C31.4 67.8 60.8 67.8 90.2 67.8C90.2 67.9 90.2 68 90.2 68.1C90.2 72.3 90.2 76.4 90.2 80.6Z" fill="#FFED7F"></path><path d="M92.2 68.1C92.2 68 92.2 67.9 92.2 67.8V66.6V64.1V2.5V2.4C92.2 2.1 92.2 1.3 91.6 0.7C91.2 0.2 90.7 0 90 0H89.9H89.8H44.6H2.5H2.3H2.2C1.6 0 1 0.2 0.6 0.6C0 1.3 0 2 0 2.3V2.4V67.4C0 67.5 0 67.6 0 67.7C0 67.8 0 67.9 0 68V72C0 74.8 0 77.6 0 80.3C0 81.9 0.1 83.3 0.3 84.6C0.8 87.7 1.9 90.3 3.6 92.4C5.1 94.3 7 95.7 9.4 97C12.6 98.6 16 99.5 18.8 100.1C23.9 101.3 29.1 102.1 34.2 102.8L35.9 103.1H36C38.1 103.4 40 103.7 42 104.2C43.2 104.5 44.1 104.8 44.6 105.4C45.1 105.9 45.8 106 46.1 106C46.6 106 47.1 105.8 47.5 105.5C48 105 48.7 104.7 49.6 104.4C51.4 103.8 53.4 103.5 55.6 103.2C56.7 103 57.8 102.9 58.9 102.7C62.2 102.2 65.6 101.7 69 101C71.7 100.5 74.6 99.9 77.4 99.1C80.5 98.2 82.8 97.2 84.8 95.9C87.9 93.9 90.1 91.3 91.3 88C92.1 85.8 92.5 83.4 92.5 80.5C92.5 77.1 92.5 73.7 92.5 70.2L92.2 68.1ZM90.2 80.6C90.2 82.9 89.9 85.2 89.2 87.4C88.1 90.4 86.2 92.6 83.6 94.2C81.4 95.6 79.1 96.4 76.7 97.2C74 98 71.2 98.6 68.5 99.1C64.1 99.9 59.7 100.6 55.3 101.3C53.2 101.6 51.1 102 49.1 102.6C48.1 102.9 47.1 103.4 46.3 104L46.2 104.1C46.2 104.1 46.2 104.1 46.1 104.1C45.1 103.1 43.8 102.8 42.6 102.4C40.5 101.8 38.4 101.5 36.3 101.2C30.6 100.3 25 99.5 19.4 98.2C16.3 97.5 13.3 96.7 10.5 95.2C8.5 94.2 6.7 92.9 5.3 91.2C3.7 89.2 2.8 86.9 2.4 84.4C2.1 83 2 81.7 2 80.4C2 76.3 2 72.3 2 68.2C2 68.1 2 67.9 2 67.8C31.4 67.8 60.8 67.8 90.2 67.8C90.2 67.9 90.2 68 90.2 68.1C90.2 72.3 90.2 76.4 90.2 80.6Z" fill="#2D8C3D"></path><path d="M57.3 78C57.6 78.4 57.8 78.8 58 79.2C58.3 80 58.2 80.8 57.6 81.5C56.8 82.4 55.8 82.9 54.7 83.1C53 83.4 51.2 83.5 49.5 83.5C48.4 83.5 47.5 83.4 46.5 83.4C45.9 83.4 45.4 83.8 45.4 84.4C45.4 85 45.9 85.4 46.6 85.4C47.5 85.5 48.1 85.6 48.9 85.6C50.8 85.7 52.7 85.8 54.7 85.8C56.6 85.7 58.2 84.9 59.6 83.5C60.7 82.3 61.3 81 61.2 79.3C61.1 78.1 60.6 77 59.8 76C59.7 75.8 59.5 75.7 59.5 75.5C59.6 75.5 59.7 75.5 59.8 75.5C60.7 75.6 61.6 75.6 62.4 75.5C64.1 75.2 65.7 74.5 66.9 73.2C67.2 72.9 67.6 72.3 67.7 72C67.7 71.9 67.6 72 67.4 72.1C66.6 72.4 65.8 72.6 64.9 72.7C63.6 72.9 62.3 72.8 60.9 72.8C60.1 72.8 59.3 72.7 58.5 72.7C58 72.8 57.4 73 57 73.4C56.2 74.2 56 75.5 56.5 76.6C56.7 77.1 57 77.5 57.3 78Z" fill="#2D8C3D"></path><path d="M42.9 83.8C42.9 83.7 42.9 83.7 42.8 83.6C42.5 83.5 42.4 83.3 42 83.3C40.8 83.3 40 83.3 38.8 83.2C38.6 83.2 38.6 83.2 38.6 83.4C38.5 84.1 38.5 84.8 38.6 85.4C38.6 85.5 38.7 85.6 38.8 85.6C39.2 85.6 39.5 85.6 39.9 85.6C40.5 85.6 40.9 85.6 41.5 85.5C42 85.5 42.3 85.3 42.7 85.1C42.8 85 42.9 85 42.9 84.8C42.8 84.5 42.8 84.2 42.9 83.8Z" fill="#2D8C3D"></path><path d="M29.7 80C29.7 78.8 30.1 77.6 30.7 76.7C30.1 76.7 28.8 76.6 28 76.4C26.8 76 25.6 75.4 24.7 74.2C24.6 74.1 24.6 74.1 24.4 74.1C23.9 74.1 23.5 74.1 23 74.1C20.4 74.1 17.7 74.2 15.1 74.1C12.6 74 10 73.6 7.4 73C7.1 72.9 7.1 73 7.2 73.2C7.4 73.9 7.8 74.6 8.4 75.1C9.6 76.3 11.1 76.9 12.7 77.3C15.1 77.8 17.5 78 19.9 78.1C21.1 78.2 22.4 78.2 23.6 78.2C20.9 78.4 18.3 78.7 17.3 78.8C15.3 79 13.3 79.1 11.3 79C10.3 79 9.2 78.9 8.1 78.7C8.2 79.1 8.4 79.4 8.6 79.7C9.4 80.9 10.6 81.5 11.9 82C13.7 82.6 15.5 82.6 17.3 82.6C23.1 82.6 28.1 82.1 28.7 81.9C27.1 82.4 24.2 83 21.4 83.6C17.6 84.4 14.3 85 10.4 85.1C10.4 85.1 10.3 85.1 10.4 85.3C10.5 85.5 11.1 86.3 11.7 86.7C13 87.6 16.8 88.4 20.3 87.9C23.3 87.4 28.7 86.3 32.2 84.8C30.8 83.8 29.7 82 29.7 80Z" fill="#2D8C3D"></path><path d="M33.9 85.7C33.5 85.6 33.1 85.4 32.8 85.2C31.7 85.8 26.4 87.7 24.4 88.4C22.1 89.2 19.7 90 17.3 90.5C16.9 90.6 16.5 90.7 16.1 90.7C16.2 90.9 16.4 91 16.5 91.1C17.9 92.3 19.5 92.7 21.3 92.7C22.9 92.7 24.4 92.3 25.9 91.8C28.7 90.9 31.9 89.5 34.6 88.2C34.2 87.4 34 86.6 33.9 85.7Z" fill="#2D8C3D"></path><path d="M33.8 84.3C33.8 83.2 33.9 82.2 34.2 81.2C33.8 80.6 33.8 79.9 34 79.2C34.2 78.7 34.5 78.2 34.8 77.7C35.1 77.3 35.4 76.9 35.6 76.4C36.3 74.6 35.2 72.9 33.3 72.7C32.3 72.6 31.2 72.8 30.2 72.8C29.1 72.8 27.9 72.9 26.8 72.7C26 72.6 24.5 72.1 24.5 72.1C24.4 72.1 24.4 72.1 24.4 72.2C24.5 72.5 24.6 72.7 24.8 72.9C26.4 74.8 28.6 75.6 31 75.6C31.5 75.6 32 75.6 32.5 75.5C31.2 77 30.5 78.5 30.8 80.5C31 81.9 32.6 84 33.8 84.4C33.9 84.4 33.8 84.4 33.8 84.3Z" fill="#2D8C3D"></path><path d="M62.4 80C62.4 78.8 62 77.6 61.4 76.7C62 76.7 63.3 76.6 64.1 76.4C65.3 76 66.5 75.4 67.4 74.2C67.5 74.1 67.5 74.1 67.7 74.1C68.2 74.1 68.6 74.1 69.1 74.1C71.7 74.1 74.4 74.2 77 74.1C79.7 74 82.3 73.6 84.9 73C85.2 72.9 85.2 73 85.1 73.2C84.9 73.9 84.5 74.6 83.9 75.1C82.7 76.3 81.2 76.9 79.6 77.3C77.2 77.8 74.8 78 72.4 78.1C71.2 78.2 69.9 78.2 68.7 78.2C71.4 78.4 74 78.7 75 78.8C77 79 79 79.1 81 79C82 79 83.1 78.9 84.2 78.7C84.1 79.1 83.9 79.4 83.7 79.7C82.9 80.9 81.7 81.5 80.4 82C78.6 82.6 76.8 82.6 75 82.6C69 82.7 64 82.2 63.4 82C65 82.5 67.9 83.1 70.7 83.7C74.5 84.5 77.8 85.1 81.7 85.2C81.7 85.2 81.8 85.2 81.7 85.4C81.6 85.6 81 86.4 80.4 86.8C79.1 87.7 75.3 88.5 71.8 88C68.8 87.5 63.5 86.4 60 84.9C61.4 83.8 62.4 82 62.4 80Z" fill="#2D8C3D"></path><path d="M59.5 85.2C60.6 85.8 65.8 87.7 67.8 88.3C70.1 89.1 72.5 89.9 74.9 90.4C75.3 90.5 75.7 90.6 76.1 90.6C76 90.8 75.8 90.9 75.7 91C74.3 92.2 72.7 92.6 70.9 92.6C69.3 92.6 67.8 92.2 66.3 91.7C63.5 90.8 57.2 88.1 54.6 86.6C56.2 86.7 58.3 86.2 59.5 85.2Z" fill="#2D8C3D"></path><path d="M52.8 86.8C52.1 86.8 49 86.5 48.5 86.5C49.5 87.2 50.6 88.1 51.6 88.8C52.2 89.2 52.2 89.7 51.7 90.2C50.7 91.2 49.5 91.9 48.1 92.2C47.5 92.4 47.1 92.1 47 91.4C46.8 90.1 46.7 88.7 46.5 87.4C46.5 87.1 46.5 87.1 46.7 87C47.1 86.9 47.5 86.6 47.8 86.4C47.2 86.3 46.8 86.3 46.1 86.2C46 86.2 45.7 86.1 45.6 86.1H45.5C44.7 85.9 44.2 85.2 44.2 84.4C44.2 83.7 44.6 83.1 45.2 82.8C45.4 82.7 45.7 82.6 46 82.6H46.1C47.2 82.7 49.9 82.7 50.4 82.7C51.1 82.4 51.8 82.1 52.5 81.8C53.1 81.5 53.6 81.7 53.8 82.4C54.4 82.3 55 82.1 55.4 81.9C54.4 78.1 50.6 74.6 46 74.6C40.6 74.6 36.2 79 36.2 84.4C36.2 89.8 40.6 94.2 46 94.2C50.1 94.2 53.6 91.7 55.1 88.2C54.9 88 53 86.9 52.8 86.8ZM47.1 77.5C47.2 76.8 47.6 76.5 48.3 76.7C49.7 77.1 50.8 77.8 51.8 78.8C52.3 79.3 52.2 79.7 51.7 80.1C50.6 80.9 49.5 81.7 48.5 82.5C48.2 82.7 48.2 82.7 48 82.5C47.7 82.2 47.3 82 46.9 81.8C46.8 81.8 46.7 81.7 46.7 81.5C46.8 80.2 47 78.8 47.1 77.5ZM40.4 78.7C41.4 77.7 42.6 77 43.9 76.6C44.6 76.4 45 76.7 45.1 77.4C45.3 78.7 45.4 80.1 45.5 81.5C45.5 81.7 45.5 81.7 45.3 81.8C44.9 81.9 44.5 82.2 44.2 82.5C44 82.7 44 82.7 43.7 82.5C42.7 81.7 41.6 80.9 40.5 80.1C40 79.6 40 79.2 40.4 78.7ZM38.3 86.5C37.9 85.1 37.9 83.8 38.3 82.4C38.5 81.7 38.9 81.5 39.6 81.8C40.8 82.3 42.1 82.9 43.3 83.4C43.5 83.5 43.5 83.5 43.4 83.7C43.3 84.1 43.3 84.6 43.4 85C43.5 85.3 43.5 85.3 43.2 85.4C42 86 40.8 86.5 39.6 87C38.9 87.3 38.5 87.1 38.3 86.5ZM45.6 87.4C45.5 88.7 45.3 90 45.1 91.4C45 92.1 44.6 92.3 44 92.2C42.6 91.9 41.4 91.2 40.4 90.2C39.9 89.7 40 89.2 40.5 88.8C41.6 88 42.7 87.2 43.8 86.4C43.9 86.3 44 86.3 44.1 86.4C44.4 86.7 44.8 86.9 45.2 87C45.6 87.1 45.6 87.1 45.6 87.4Z" fill="#2D8C3D"></path><path d="M55.9 88.5C54.3 92.3 50.5 95 46.1 95C40.2 95 35.5 90.2 35.5 84.4C35.5 78.6 40.3 73.8 46.1 73.8C51 73.8 55.1 77.1 56.3 81.6C56.5 81.5 56.8 81.3 56.9 81.1C55.5 76.5 51.1 73.1 46 73.1C39.7 73.1 34.6 78.2 34.6 84.5C34.6 90.8 39.7 95.9 46 95.9C50.7 95.9 54.7 93.1 56.5 89L55.9 88.5Z" fill="#2D8C3D"></path><path d="M50.1 49.7C50.2 50.4 49.9 50.8 49.4 51.1C48.6 51.6 47.5 51.9 45.8 51.9C45 51.9 43.8 51.7 42.8 51C42.4 50.7 42.2 50.4 42.3 50C42.4 49.5 42.4 49 42.7 48.6C43.1 47.9 43.7 47.6 44.5 47.4C45.7 47.2 46.9 47.2 48.1 47.4C49.2 47.6 50 48.4 50.1 49.7Z" fill="#FFED7F"></path><path d="M47.6 57C46.4 57.3 45.2 57.3 44.1 56.8C43.4 56.5 42.9 56 42.7 55.2C42.6 54.9 42.6 54.6 42.5 54.3C43.9 56.1 48.3 56.1 49.7 54.3C49.7 55.7 49 56.6 47.6 57Z" fill="#FFED7F"></path><path d="M49 56.7C49 57 48.8 57.3 48.6 57.6C48.3 58.2 48 58.7 47.5 59.2C46.6 60 45.7 60.1 44.9 59.3C44.1 58.6 43.7 57.7 43.3 56.8C43.8 57.2 44.3 57.6 45 57.8C46.5 58.1 47.8 57.8 49 56.7C49 56.8 48.9 56.8 49 56.7Z" fill="#FFED7F"></path><path d="M47.3 54.6C46 54.8 44.8 54.7 43.6 54.2C43.5 54.2 43.4 54.1 43.4 54.1C42.8 53.8 42.3 53.4 42.4 52.6C42.4 52.2 42.4 51.8 42.4 51.3C43.4 52.3 44.8 52.7 46.3 52.7C47.7 52.7 49.1 52.4 50.2 51.3C50.2 52 50.2 52.6 50.1 53.2C50.1 53.3 50 53.4 49.9 53.5C49.1 54.2 48.2 54.5 47.3 54.6Z" fill="#FFED7F"></path><path d="M46.1 46.7C45 46.7 44.2 46.2 43.7 45.2C43.2 44.2 43.2 43.1 43.2 42C43.2 40.9 43.8 40.2 44.8 39.8C45.9 39.3 47 39.5 48 40.1C48.7 40.5 49 41.1 49 41.9C49 42.1 49 42.3 49 42.5C49 43.4 48.9 44.4 48.5 45.2C48.1 46.3 47.2 46.7 46.1 46.7Z" fill="#FFED7F"></path><path d="M39.7 55.5C39.6 56.2 39.4 56.5 39.3 57.2C39.2 57.4 38.9 57.4 38.8 57.5C38.6 57.6 38.6 57.8 38.5 58C38.4 58.5 38.1 59.8 38 60.6C37.9 61.2 38 62.3 38.1 62.4C37.7 62.3 37.7 61.9 37.5 61.9C37.4 61.9 37.4 62.1 37.2 62.4C37 61.1 37.5 58.6 37.7 58C37.8 57.8 37.9 57.2 37.7 57.1C37.5 57 37.8 56.3 37.8 56.1C38.1 54.6 38.4 53.3 39 51.6C39.5 50.1 40.6 49 42 48.2C42 48.3 42 48.3 41.9 48.4C41.7 48.7 41 50.1 40.9 50.5C40.6 51.3 40.5 52.2 40.3 53.1C40 54 39.9 54.7 39.7 55.5Z" fill="#FFED7F"></path><path d="M37 53C36.8 52.8 36.9 52.4 36.7 52.3C36.5 52.2 36.4 52.5 36.2 52.7C36.3 51.9 36.8 51.2 37.2 50.5C37.7 49.8 38.3 49.2 38.4 49.2C38.7 49.1 39.1 48.9 39.7 48.7C39.5 48.8 38.7 49.5 38.2 50.5C37.3 51.8 37 53 37 53Z" fill="#FFED7F"></path><path d="M47.4 36.1C47.1 35.9 46.6 35.8 46.2 35.8C45.7 35.8 45.3 35.9 44.9 36.1L44.3 36.7C43.6 36.7 43.1 37.3 43.1 38.1C43.1 38.8 43.7 39.4 44.4 39.4C44.6 39.4 44.8 39.3 44.9 39.3C45.2 39.1 45.7 39 46.2 39C46.7 39 47.1 39.1 47.5 39.3C47.7 39.4 47.8 39.4 48 39.4C48.7 39.4 49.3 38.8 49.3 38.1C49.3 37.4 48.8 36.8 48.1 36.7C48 36.7 47.4 36 47.4 36.1Z" fill="#FFED7F"></path><path d="M40 47.9C39 48.3 37.9 48.6 36.8 48.7C36.7 48.7 36.5 48.7 36.4 48.7C35.2 48.6 34.1 48.4 33 47.8C32 47.3 32 46.3 32.8 45.6C33.4 45.1 34.2 44.8 35 44.6C36.8 44 38.6 44 40.4 44.1C41.1 44.2 41.8 44.2 42.4 44.3C42.6 44.3 42.7 44.4 42.8 44.6C42.9 44.9 43 45.1 43.2 45.3C43.4 45.5 43.3 45.6 43.1 45.8C42.2 46.7 41.2 47.4 40 47.9Z" fill="#FFED7F"></path><path d="M41.2 41.3C41.6 41.4 42 41.5 42.4 41.6C42.6 41.6 42.6 41.7 42.6 41.8C42.6 42 42.6 42.2 42.6 42.5C42.6 42.9 42.6 43.3 42.7 43.8C42.8 44.1 42.7 44.1 42.5 44.1C41.6 44 40.6 43.9 39.7 43.8C37.2 43.7 34.8 44 32.5 45.2C31.8 45.6 30.9 45.6 30.1 45.3C28.5 44.7 27 43.9 25.8 42.6C25.4 42.2 25.1 41.8 24.9 41.2C24.6 40.4 24.9 39.7 25.6 39.2C26.3 38.8 27 38.7 27.7 38.5C28.8 38.3 30 38.1 31.1 38.2C32.7 38.3 34.2 38.8 35.6 39.3C37.6 40.1 39.4 40.8 41.2 41.3Z" fill="#FFED7F"></path><path d="M55.9 48.7C54.9 48.7 53.9 48.4 53 48.1C51.6 47.7 50.4 46.9 49.2 46C49 45.8 48.9 45.7 49.1 45.4C49.3 45.2 49.4 45 49.4 44.8C49.5 44.5 49.6 44.5 49.8 44.5C51.6 44.3 53.4 44.1 55.1 44.3C56.4 44.5 57.6 44.8 58.7 45.4C59.3 45.7 59.8 46.1 59.9 46.8C59.9 47.1 59.9 47.3 59.7 47.6C59.5 47.8 59.3 47.9 59 48.1C58.1 48.4 57 48.7 55.9 48.7Z" fill="#FFED7F"></path><path d="M59.8 45.1C58.1 44.2 56.3 43.8 54.3 43.7C52.8 43.6 51.4 43.8 50 44C49.6 44.1 49.6 44.1 49.7 43.7C49.8 43.1 49.8 42.5 49.8 42C49.8 41.9 49.8 41.8 50 41.7C52.2 41.2 54.3 40.4 56.4 39.6C57.8 39.1 59.2 38.6 60.7 38.4C61.1 38.4 61.4 38.3 61.8 38.3C63.3 38.4 64.8 38.6 66.2 39.1C66.8 39.3 67.4 39.6 67.5 40.3C67.6 40.8 67.5 41.3 67.3 41.7C66.8 42.7 65.9 43.3 65 43.9C64.2 44.4 63.4 44.9 62.5 45.2C61.5 45.5 60.6 45.5 59.8 45.1Z" fill="#FFED7F"></path><path d="M52.6 55.5C52.7 56.2 52.9 56.5 53 57.2C53.1 57.4 53.4 57.4 53.5 57.5C53.7 57.6 53.7 57.8 53.8 58C53.9 58.5 54.2 59.8 54.3 60.6C54.4 61.2 54.3 62.3 54.2 62.4C54.6 62.3 54.6 61.9 54.8 61.9C54.9 61.9 54.9 62.1 55.1 62.4C55.3 61.1 54.8 58.6 54.6 58C54.5 57.8 54.4 57.2 54.6 57.1C54.8 57 54.5 56.3 54.5 56.1C54.2 54.6 53.9 53.3 53.3 51.6C52.8 50.1 51.7 49 50.3 48.2C50.3 48.3 50.3 48.3 50.4 48.4C50.6 48.7 51.3 50.1 51.4 50.5C51.7 51.3 51.8 52.2 52 53.1C52.3 54 52.4 54.7 52.6 55.5Z" fill="#FFED7F"></path><path d="M52.3 37.6C52.5 38 52.5 38.4 52.3 38.8C51.8 39.8 51 40.5 49.9 41C49.8 41.1 49.7 41 49.6 40.9C49.1 40.4 49.1 40.4 49.6 39.9C49.8 39.7 50.1 39.5 50.3 39.3C50.9 38.8 51.2 38.3 51.5 37.6C51.6 37.4 51.5 37.1 51.4 36.9C51.3 36.5 51.4 36.2 51.7 35.9C52 35.6 52.2 35.3 52.4 34.9C52.5 34.5 52.7 34.2 52.4 33.8C52.9 33.7 53 33.4 53 33C53.2 34.1 53.2 35.1 52.9 36.1C52.8 36.5 52.6 36.9 52.3 37.2C52.2 37.3 52.2 37.4 52.3 37.6Z" fill="#FFED7F"></path><path d="M40 37.6C39.8 38 39.8 38.4 40 38.8C40.5 39.8 41.3 40.5 42.4 41C42.5 41.1 42.6 41 42.7 40.9C43.2 40.4 43.2 40.4 42.7 39.9C42.5 39.7 42.2 39.5 42 39.3C41.4 38.8 41.1 38.3 40.8 37.6C40.7 37.4 40.8 37.1 40.9 36.9C41 36.5 40.9 36.2 40.6 35.9C40.3 35.6 40.1 35.3 39.9 34.9C39.8 34.5 39.6 34.2 39.9 33.8C39.4 33.7 39.3 33.4 39.3 33C39.1 34.1 39.1 35.1 39.4 36.1C39.5 36.5 39.7 36.9 40 37.2C40.1 37.3 40.1 37.4 40 37.6Z" fill="#FFED7F"></path><path d="M43.9 35.9C43.9 35.9 43.2 33.8 42.5 32.8C41.7 31.7 41.8 31.4 41.8 31.4L42.1 31.2C42.1 31.2 42.9 32.2 43.2 32.6C43.5 33.1 44.4 34.6 44.6 35.5C44.5 36.1 43.9 35.9 43.9 35.9Z" fill="#FFED7F"></path><path d="M48.4 35.9C48.4 35.9 49.1 33.8 49.8 32.8C50.5 31.8 50.5 31.4 50.5 31.4L50.2 31.2C50.2 31.2 49.4 32.2 49.1 32.6C48.8 33.1 47.9 34.6 47.7 35.5C47.8 36.1 48.4 35.9 48.4 35.9Z" fill="#FFED7F"></path><path d="M55.3 53C55.5 52.8 55.4 52.4 55.6 52.3C55.8 52.2 55.9 52.5 56.1 52.7C56 51.9 55.5 51.2 55.1 50.5C54.6 49.8 54 49.2 53.9 49.2C53.6 49.1 53.2 48.9 52.6 48.7C52.8 48.8 53.6 49.5 54.1 50.5C54.9 51.8 55.3 53 55.3 53Z" fill="#FFED7F"></path><path d="M28.2 22.4C28.3 23 28.1 23.4 27.5 23.7C26.7 24.1 25.8 24.4 24.2 24.4C23.5 24.4 22.4 24.2 21.5 23.6C21.2 23.4 21 23.1 21 22.7C21.1 22.2 21.1 21.8 21.3 21.4C21.7 20.8 22.2 20.5 22.9 20.4C24 20.2 25 20.2 26.1 20.4C27.5 20.5 28.1 21.2 28.2 22.4Z" fill="#FFED7F"></path><path d="M26 28.9C24.9 29.2 23.9 29.2 22.9 28.7C22.3 28.4 21.8 28 21.7 27.3C21.7 27 21.6 26.7 21.5 26.5C22.7 28.1 26.7 28.1 28 26.5C27.9 27.8 27.3 28.6 26 28.9Z" fill="#FFED7F"></path><path d="M27.2 28.7C27.2 29 27 29.2 26.9 29.5C26.6 30 26.3 30.5 25.9 30.9C25.1 31.6 24.3 31.7 23.5 31C22.8 30.4 22.4 29.6 22.1 28.8C22.6 29.2 23 29.5 23.6 29.7C24.9 29.9 26.1 29.7 27.2 28.7Z" fill="#FFED7F"></path><path d="M25.7 26.8C24.6 27 23.4 26.9 22.3 26.4C22.2 26.4 22.2 26.3 22.1 26.3C21.5 26 21.1 25.7 21.2 25C21.2 24.6 21.2 24.2 21.2 23.9C22.1 24.8 23.4 25.1 24.7 25.1C26 25.1 27.2 24.8 28.2 23.8C28.2 24.4 28.2 25 28.1 25.5C28.1 25.6 28 25.7 27.9 25.8C27.3 26.4 26.5 26.6 25.7 26.8Z" fill="#FFED7F"></path><path d="M24.6 19.7C23.6 19.7 22.9 19.3 22.5 18.4C22.1 17.5 22.1 16.5 22.1 15.6C22.1 14.6 22.7 14 23.6 13.6C24.6 13.1 25.6 13.3 26.5 13.9C27.1 14.3 27.4 14.8 27.4 15.5C27.4 15.7 27.4 15.9 27.4 16C27.4 16.8 27.3 17.7 26.9 18.4C26.4 19.3 25.6 19.7 24.6 19.7Z" fill="#FFED7F"></path><path d="M18.9 27.6C18.8 28.2 18.7 28.5 18.5 29.1C18.4 29.3 18.2 29.3 18 29.3C17.8 29.4 17.8 29.5 17.7 29.8C17.6 30.3 17.3 31.4 17.3 32.1C17.2 32.6 17.3 33.6 17.4 33.7C17.1 33.6 17 33.2 16.8 33.2C16.7 33.2 16.7 33.4 16.5 33.7C16.3 32.5 16.8 30.3 16.9 29.8C16.9 29.6 17.1 29 16.9 29C16.7 28.9 17 28.3 17 28.1C17.3 26.8 17.5 25.6 18.1 24C18.6 22.7 19.5 21.7 20.8 20.9C20.8 21 20.8 21 20.7 21.1C20.5 21.4 19.9 22.7 19.8 23C19.5 23.8 19.4 24.5 19.3 25.3C19.2 26.2 19 26.8 18.9 27.6Z" fill="#FFED7F"></path><path d="M16.4 25.3C16.2 25.1 16.3 24.7 16.1 24.7C15.9 24.7 15.9 24.9 15.6 25.1C15.7 24.4 16.2 23.7 16.5 23.1C16.9 22.4 17.5 21.9 17.5 21.9C17.8 21.8 18.1 21.6 18.6 21.5C18.4 21.6 17.7 22.3 17.2 23.1C16.8 24.3 16.5 25.3 16.4 25.3Z" fill="#FFED7F"></path><path d="M25.8 10.1C25.5 9.89999 25.1 9.79999 24.7 9.79999C24.3 9.79999 23.9 9.89999 23.6 10.1C23.6 10.1 23.1 10.6 23.1 10.7C22.5 10.7 22 11.3 22 11.9C22 12.6 22.5 13.1 23.1 13.1C23.3 13.1 23.4 13 23.6 13C23.9 12.8 24.3 12.7 24.7 12.7C25.1 12.7 25.5 12.8 25.8 13C25.9 13.1 26.1 13.1 26.3 13.1C26.9 13.1 27.4 12.6 27.4 11.9C27.4 11.2 26.9 10.7 26.3 10.7L25.8 10.1Z" fill="#FFED7F"></path><path d="M19.2 20.7C18.3 21 17.3 21.3 16.4 21.5C16.3 21.5 16.2 21.5 16.1 21.5C15 21.4 14 21.2 13.1 20.7C12.2 20.2 12.2 19.4 12.9 18.8C13.5 18.3 14.2 18.1 14.8 17.9C16.4 17.4 18 17.4 19.7 17.5C20.3 17.5 20.9 17.6 21.5 17.7C21.7 17.7 21.8 17.8 21.9 18C22 18.2 22.1 18.4 22.2 18.6C22.4 18.8 22.3 18.9 22.1 19C21.2 19.7 20.2 20.3 19.2 20.7Z" fill="#FFED7F"></path><path d="M20.3 14.9C20.6 15 21 15.1 21.3 15.2C21.4 15.2 21.5 15.3 21.5 15.4C21.5 15.6 21.5 15.8 21.5 16C21.5 16.4 21.5 16.8 21.6 17.1C21.7 17.3 21.6 17.4 21.4 17.3C20.6 17.2 19.7 17.1 18.9 17C16.6 16.9 14.5 17.1 12.4 18.2C11.8 18.5 11 18.6 10.3 18.3C8.9 17.8 7.5 17 6.5 15.9C6.2 15.5 5.9 15.1 5.7 14.7C5.5 14 5.7 13.3 6.4 12.9C7 12.6 7.7 12.4 8.3 12.3C9.3 12.1 10.3 11.9 11.4 12C12.8 12.1 14.2 12.6 15.5 13C17 13.7 18.6 14.4 20.3 14.9Z" fill="#FFED7F"></path><path d="M33.4 21.5C32.5 21.5 31.6 21.2 30.8 20.9C29.5 20.5 28.4 19.8 27.4 19C27.2 18.8 27.1 18.7 27.3 18.5C27.4 18.4 27.5 18.2 27.6 18C27.6 17.8 27.8 17.7 28 17.7C29.6 17.5 31.2 17.3 32.8 17.5C33.9 17.6 35 17.9 36.1 18.5C36.6 18.8 37.1 19.1 37.1 19.8C37.1 20.1 37.1 20.3 36.9 20.5C36.7 20.7 36.5 20.8 36.3 20.9C35.4 21.2 34.4 21.4 33.4 21.5Z" fill="#FFED7F"></path><path d="M36.9 18.2C35.4 17.4 33.7 17 32 17C30.7 16.9 29.4 17.1 28.1 17.2C27.7 17.2 27.7 17.3 27.8 16.9C27.9 16.4 27.9 15.9 27.9 15.3C27.9 15.2 27.9 15.1 28.1 15.1C30.1 14.7 31.9 13.9 33.8 13.2C35.1 12.7 36.3 12.3 37.7 12.1C38 12.1 38.4 12 38.7 12C40 12.1 41.4 12.2 42.7 12.7C43.2 12.9 43.7 13.2 43.9 13.8C44 14.3 43.9 14.7 43.7 15.1C43.2 16 42.5 16.6 41.7 17.1C41 17.6 40.2 18 39.4 18.3C38.5 18.6 37.7 18.6 36.9 18.2Z" fill="#FFED7F"></path><path d="M30.5 27.6C30.6 28.2 30.7 28.5 30.9 29.1C31 29.3 31.2 29.3 31.4 29.3C31.6 29.4 31.6 29.5 31.7 29.8C31.8 30.3 32.1 31.4 32.1 32.1C32.2 32.6 32.1 33.6 32 33.7C32.3 33.6 32.4 33.2 32.6 33.2C32.7 33.2 32.7 33.4 32.9 33.7C33.1 32.5 32.6 30.3 32.5 29.8C32.5 29.6 32.3 29 32.5 29C32.7 28.9 32.4 28.3 32.4 28.1C32.1 26.8 31.9 25.6 31.3 24C30.8 22.7 29.9 21.7 28.6 20.9C28.6 21 28.6 21 28.7 21.1C28.9 21.4 29.5 22.7 29.6 23C29.9 23.8 30 24.5 30.1 25.3C30.2 26.2 30.3 26.8 30.5 27.6Z" fill="#FFED7F"></path><path d="M30.2 11.5C30.4 11.8 30.3 12.2 30.2 12.5C29.8 13.4 29 14.1 28 14.4C27.9 14.4 27.8 14.4 27.7 14.3C27.3 13.9 27.3 13.8 27.7 13.4C27.9 13.2 28.1 13 28.3 12.9C28.8 12.5 29.1 12 29.4 11.4C29.5 11.2 29.4 11 29.3 10.8C29.2 10.5 29.3 10.2 29.6 9.89999C29.8 9.59999 30.1 9.29999 30.2 8.99999C30.3 8.69999 30.4 8.39999 30.2 7.99999C30.6 7.89999 30.7 7.59999 30.8 7.29999C31 8.29999 31 9.19999 30.7 10.1C30.6 10.5 30.4 10.8 30.2 11.1C30.1 11.3 30.1 11.3 30.2 11.5Z" fill="#FFED7F"></path><path d="M19.2 11.5C19 11.8 19.1 12.2 19.2 12.5C19.6 13.4 20.4 14.1 21.4 14.4C21.5 14.4 21.6 14.4 21.7 14.3C22.1 13.9 22.1 13.8 21.7 13.4C21.5 13.2 21.3 13 21.1 12.9C20.6 12.5 20.3 12 20 11.4C19.9 11.2 20 11 20.1 10.8C20.2 10.5 20.1 10.2 19.8 9.89999C19.4 9.59999 19.2 9.39999 19 8.99999C18.9 8.69999 18.8 8.39999 19 7.99999C18.6 7.89999 18.5 7.59999 18.4 7.29999C18.2 8.29999 18.2 9.19999 18.5 10.1C18.6 10.5 18.8 10.8 19 11.1C19.2 11.3 19.3 11.3 19.2 11.5Z" fill="#FFED7F"></path><path d="M22.7 9.99999C22.7 9.99999 22.1 8.19999 21.4 7.19999C20.7 6.19999 20.7 5.99999 20.7 5.99999L21 5.79999C21 5.79999 21.7 6.69999 22 7.09999C22.3 7.49999 23.1 8.89999 23.2 9.69999C23.2 10.1 22.7 9.99999 22.7 9.99999Z" fill="#FFED7F"></path><path d="M26.7 9.99999C26.7 9.99999 27.3 8.19999 28 7.19999C28.7 6.19999 28.7 5.99999 28.7 5.99999L28.4 5.89999C28.4 5.89999 27.7 6.79999 27.4 7.19999C27.1 7.59999 26.3 8.99999 26.2 9.79999C26.2 10.1 26.7 9.99999 26.7 9.99999Z" fill="#FFED7F"></path><path d="M32.9 25.3C33.1 25.1 33 24.7 33.2 24.7C33.4 24.7 33.4 24.9 33.7 25.1C33.6 24.4 33.1 23.7 32.8 23.1C32.4 22.4 31.8 21.9 31.8 21.9C31.5 21.8 31.2 21.6 30.7 21.5C30.9 21.6 31.6 22.3 32.1 23.1C32.6 24.3 32.9 25.3 32.9 25.3Z" fill="#FFED7F"></path><path d="M71.2 22.5C71.3 23.1 71.1 23.5 70.5 23.8C69.7 24.2 68.8 24.5 67.2 24.5C66.5 24.5 65.4 24.3 64.5 23.7C64.2 23.5 64 23.2 64 22.8C64.1 22.3 64.1 21.9 64.3 21.5C64.7 20.9 65.2 20.6 65.9 20.5C67 20.3 68 20.3 69.1 20.5C70.4 20.6 71.1 21.3 71.2 22.5Z" fill="#FFED7F"></path><path d="M68.9 29C67.8 29.3 66.8 29.3 65.8 28.8C65.2 28.5 64.7 28.1 64.6 27.4C64.6 27.1 64.5 26.8 64.4 26.6C65.6 28.2 69.6 28.2 70.9 26.6C70.9 27.9 70.2 28.7 68.9 29Z" fill="#FFED7F"></path><path d="M70.2 28.8C70.2 29.1 70 29.3 69.9 29.6C69.6 30.1 69.3 30.6 68.9 31C68.1 31.7 67.3 31.8 66.5 31.1C65.8 30.5 65.4 29.7 65.1 28.9C65.6 29.3 66 29.6 66.6 29.8C67.9 30 69.1 29.8 70.2 28.8C70.2 28.8 70.1 28.9 70.2 28.8Z" fill="#FFED7F"></path><path d="M68.7 26.9C67.6 27.1 66.4 27 65.3 26.5C65.2 26.5 65.2 26.4 65.1 26.4C64.5 26.1 64.1 25.8 64.2 25.1C64.2 24.7 64.2 24.3 64.2 24C65.1 24.9 66.4 25.2 67.7 25.2C69 25.2 70.2 24.9 71.2 23.9C71.2 24.5 71.2 25.1 71.1 25.6C71.1 25.7 71 25.8 70.9 25.9C70.3 26.5 69.5 26.8 68.7 26.9Z" fill="#FFED7F"></path><path d="M67.6 19.8C66.6 19.8 65.9 19.4 65.5 18.5C65 17.6 65 16.6 65 15.6C65 14.6 65.6 14 66.5 13.6C67.5 13.1 68.5 13.3 69.4 13.9C70 14.3 70.3 14.8 70.3 15.5C70.3 15.7 70.3 15.9 70.3 16C70.3 16.8 70.2 17.7 69.8 18.4C69.3 19.4 68.6 19.8 67.6 19.8Z" fill="#FFED7F"></path><path d="M61.9 27.7C61.8 28.3 61.7 28.6 61.5 29.2C61.4 29.4 61.2 29.4 61 29.4C60.8 29.5 60.8 29.6 60.7 29.9C60.6 30.4 60.3 31.5 60.3 32.2C60.2 32.7 60.3 33.7 60.4 33.8C60.1 33.7 60 33.3 59.8 33.3C59.7 33.3 59.7 33.5 59.5 33.8C59.3 32.6 59.8 30.4 59.9 29.9C59.9 29.7 60.1 29.1 59.9 29.1C59.7 29 60 28.4 60 28.2C60.3 26.9 60.5 25.7 61.1 24.1C61.6 22.8 62.5 21.8 63.8 21C63.8 21.1 63.8 21.1 63.7 21.2C63.5 21.5 62.9 22.8 62.8 23.1C62.5 23.9 62.4 24.6 62.3 25.4C62.1 26.3 62 27 61.9 27.7Z" fill="#FFED7F"></path><path d="M59.4 25.4C59.2 25.2 59.3 24.8 59.1 24.8C58.9 24.8 58.9 25 58.6 25.2C58.7 24.5 59.2 23.8 59.5 23.2C59.9 22.5 60.5 22 60.5 22C60.8 21.9 61.1 21.7 61.6 21.6C61.4 21.7 60.7 22.4 60.2 23.2C59.7 24.4 59.4 25.5 59.4 25.4Z" fill="#FFED7F"></path><path d="M68.8 10.3C68.5 10.1 68.1 9.99997 67.7 9.99997C67.3 9.99997 66.9 10.1 66.6 10.3C66.6 10.3 66.1 10.8 66.1 10.9C65.5 10.9 65 11.5 65 12.1C65 12.7 65.5 13.3 66.1 13.3C66.3 13.3 66.4 13.2 66.6 13.2C66.9 13 67.3 12.9 67.7 12.9C68.1 12.9 68.5 13 68.8 13.2C68.9 13.3 69.1 13.3 69.3 13.3C69.9 13.3 70.4 12.8 70.4 12.1C70.4 11.4 69.9 10.9 69.3 10.9C69.3 10.8 68.8 10.2 68.8 10.3Z" fill="#FFED7F"></path><path d="M62.1 20.8C61.2 21.1 60.2 21.4 59.3 21.6C59.2 21.6 59.1 21.6 59 21.6C57.9 21.5 56.9 21.3 56 20.8C55.1 20.3 55.1 19.5 55.8 18.9C56.4 18.4 57.1 18.2 57.7 18C59.3 17.5 60.9 17.5 62.6 17.6C63.2 17.6 63.8 17.7 64.4 17.8C64.6 17.8 64.7 17.9 64.8 18.1C64.9 18.3 65 18.5 65.1 18.7C65.3 18.9 65.2 19 65 19.1C64.1 19.8 63.2 20.5 62.1 20.8Z" fill="#FFED7F"></path><path d="M63.2 15C63.5 15.1 63.9 15.2 64.2 15.3C64.3 15.3 64.4 15.4 64.4 15.5C64.4 15.7 64.4 15.9 64.4 16.1C64.4 16.5 64.4 16.9 64.5 17.2C64.6 17.4 64.5 17.5 64.3 17.4C63.5 17.3 62.6 17.2 61.8 17.1C59.5 17 57.4 17.2 55.3 18.3C54.7 18.6 53.9 18.7 53.2 18.4C51.8 17.9 50.4 17.1 49.4 16C49.1 15.6 48.8 15.2 48.6 14.8C48.4 14.1 48.6 13.4 49.3 13C49.9 12.7 50.6 12.5 51.2 12.4C52.2 12.2 53.2 12 54.3 12.1C55.7 12.2 57.1 12.7 58.4 13.1C59.9 13.9 61.5 14.5 63.2 15Z" fill="#FFED7F"></path><path d="M76.4 21.6C75.5 21.6 74.6 21.3 73.8 21C72.5 20.6 71.4 19.9 70.4 19.1C70.2 18.9 70.1 18.8 70.3 18.6C70.4 18.5 70.5 18.3 70.6 18.1C70.6 17.9 70.8 17.8 71 17.8C72.6 17.6 74.2 17.4 75.8 17.6C76.9 17.7 78 18 79.1 18.6C79.6 18.9 80.1 19.2 80.1 19.9C80.1 20.2 80.1 20.4 79.9 20.6C79.7 20.8 79.5 20.9 79.3 21C78.4 21.4 77.4 21.6 76.4 21.6Z" fill="#FFED7F"></path><path d="M79.9 18.3C78.4 17.5 76.7 17.1 75 17.1C73.7 17 72.4 17.2 71.1 17.3C70.7 17.3 70.7 17.4 70.8 17C70.9 16.5 70.9 16 70.9 15.4C70.9 15.3 70.9 15.2 71.1 15.2C73.1 14.8 74.9 14 76.8 13.3C78.1 12.8 79.3 12.4 80.7 12.2C81 12.2 81.4 12.1 81.7 12.1C83 12.2 84.4 12.3 85.7 12.8C86.2 13 86.7 13.3 86.9 13.9C87 14.4 86.9 14.8 86.7 15.2C86.2 16.1 85.5 16.7 84.7 17.2C84 17.7 83.2 18.1 82.4 18.4C81.5 18.8 80.6 18.7 79.9 18.3Z" fill="#FFED7F"></path><path d="M73.4 27.7C73.5 28.3 73.6 28.6 73.8 29.2C73.9 29.4 74.1 29.4 74.3 29.4C74.5 29.5 74.5 29.6 74.6 29.9C74.7 30.4 75 31.5 75 32.2C75.1 32.7 75 33.7 74.9 33.8C75.2 33.7 75.3 33.3 75.5 33.3C75.6 33.3 75.6 33.5 75.8 33.8C76 32.6 75.5 30.4 75.4 29.9C75.4 29.7 75.2 29.1 75.4 29.1C75.6 29 75.3 28.4 75.3 28.2C75 26.9 74.8 25.7 74.2 24.1C73.7 22.8 72.8 21.8 71.5 21C71.5 21.1 71.5 21.1 71.6 21.2C71.8 21.5 72.4 22.8 72.5 23.1C72.8 23.9 72.9 24.6 73 25.4C73.2 26.3 73.3 27 73.4 27.7Z" fill="#FFED7F"></path><path d="M73.2 11.6C73.4 11.9 73.3 12.3 73.2 12.6C72.8 13.5 72 14.2 71 14.5C70.9 14.5 70.8 14.5 70.7 14.4C70.3 14 70.3 13.9 70.7 13.5C70.9 13.3 71.1 13.1 71.3 13C71.8 12.6 72.1 12.1 72.4 11.5C72.5 11.3 72.4 11.1 72.3 10.9C72.2 10.6 72.3 10.3 72.6 9.99996C72.8 9.69996 73.1 9.39996 73.2 9.09996C73.3 8.79996 73.4 8.49996 73.2 8.09996C73.6 7.99996 73.7 7.69996 73.8 7.39996C74 8.39996 74 9.29996 73.7 10.2C73.6 10.6 73.4 10.9 73.2 11.2C73.1 11.4 73.1 11.5 73.2 11.6Z" fill="#FFED7F"></path><path d="M62.1 11.6C61.9 11.9 62 12.3 62.1 12.6C62.5 13.5 63.3 14.2 64.3 14.5C64.4 14.5 64.5 14.5 64.6 14.4C65 14 65 13.9 64.6 13.5C64.4 13.3 64.2 13.1 64 13C63.5 12.6 63.2 12.1 62.9 11.5C62.8 11.3 62.9 11.1 63 10.9C63.1 10.6 63 10.3 62.7 9.99996C62.5 9.69996 62.2 9.39996 62.1 9.09996C62 8.79996 61.9 8.49996 62.1 8.09996C61.7 7.99996 61.6 7.69996 61.5 7.39996C61.3 8.39996 61.3 9.29996 61.6 10.2C61.7 10.6 61.9 10.9 62.1 11.2C62.2 11.4 62.2 11.5 62.1 11.6Z" fill="#FFED7F"></path><path d="M65.6 10.2C65.6 10.2 65 8.39998 64.3 7.39998C63.6 6.39998 63.6 6.19998 63.6 6.19998L63.9 6.09998C63.9 6.09998 64.6 6.99998 64.9 7.39998C65.2 7.79998 66 8.99998 66.1 9.79998C66.2 10.2 65.6 10.2 65.6 10.2Z" fill="#FFED7F"></path><path d="M69.7 10.2C69.7 10.2 70.3 8.39998 71 7.39998C71.7 6.39998 71.7 6.19998 71.7 6.19998L71.4 6.09998C71.4 6.09998 70.7 6.99998 70.4 7.39998C70.2 7.79998 69.3 9.19998 69.2 9.99998C69.1 10.2 69.7 10.2 69.7 10.2Z" fill="#FFED7F"></path><path d="M75.8 25.4C76 25.2 75.9 24.8 76.1 24.8C76.3 24.8 76.3 25 76.6 25.2C76.5 24.5 76 23.8 75.7 23.2C75.3 22.5 74.7 22 74.7 22C74.4 21.9 74.1 21.7 73.6 21.6C73.8 21.7 74.5 22.4 75 23.2C75.5 24.4 75.8 25.5 75.8 25.4Z" fill="#FFED7F"></path><path d="M138.9 41.8C139 42.1 139.1 42.3 139.1 42.5C139.1 42.7 139.1 42.8 139 42.9C138.9 43 138.7 43.1 138.5 43.1C138.3 43.1 137.9 43.1 137.5 43.1C137.1 43.1 136.8 43.1 136.5 43.1C136.3 43.1 136.1 43 135.9 43C135.8 43 135.7 42.9 135.6 42.8C135.5 42.7 135.5 42.6 135.4 42.5L133.2 36.3H122.6L120.5 42.4C120.5 42.5 120.4 42.6 120.3 42.7C120.2 42.8 120.1 42.9 120 42.9C119.9 43 119.7 43 119.5 43C119.3 43 119 43 118.6 43C118.2 43 117.9 43 117.7 43C117.5 43 117.3 42.9 117.2 42.8C117.1 42.7 117.1 42.6 117.1 42.4C117.1 42.2 117.2 42 117.3 41.7L125.9 18C126 17.9 126 17.7 126.1 17.6C126.2 17.5 126.3 17.4 126.5 17.4C126.7 17.3 126.9 17.3 127.1 17.3C127.4 17.3 127.7 17.3 128.1 17.3C128.5 17.3 128.9 17.3 129.1 17.3C129.4 17.3 129.6 17.4 129.8 17.4C130 17.4 130.1 17.5 130.2 17.6C130.3 17.7 130.4 17.8 130.4 18L138.9 41.8ZM127.9 20.9L123.5 33.6H132.4L127.9 20.9Z" fill="black"></path><path d="M145.3 42.5C145.3 42.6 145.3 42.7 145.2 42.8C145.1 42.9 145.1 42.9 144.9 43C144.8 43.1 144.6 43.1 144.4 43.1C144.2 43.1 143.9 43.1 143.6 43.1C143.3 43.1 143 43.1 142.8 43.1C142.6 43.1 142.4 43 142.3 43C142.2 42.9 142.1 42.9 142 42.8C142 42.7 141.9 42.6 141.9 42.5V16.1C141.9 16 141.9 15.9 142 15.8C142 15.7 142.1 15.7 142.3 15.6C142.4 15.5 142.6 15.5 142.8 15.5C143 15.5 143.3 15.5 143.6 15.5C143.9 15.5 144.2 15.5 144.4 15.5C144.6 15.5 144.8 15.6 144.9 15.6C145 15.7 145.1 15.7 145.2 15.8C145.3 15.9 145.3 16 145.3 16.1V42.5Z" fill="black"></path><path d="M165 24.7C165 24.8 165 24.8 165 24.9C165 25 165 25 165 25.1C165 25.2 165 25.2 165 25.3C165 25.4 165 25.5 164.9 25.6L158.8 42.5C158.7 42.6 158.7 42.8 158.6 42.9C158.5 43 158.4 43.1 158.2 43.1C158 43.1 157.8 43.2 157.5 43.2C157.2 43.2 156.9 43.2 156.5 43.2C156.1 43.2 155.8 43.2 155.5 43.2C155.2 43.2 155 43.1 154.9 43.1C154.7 43 154.6 43 154.5 42.9C154.4 42.8 154.3 42.7 154.3 42.6L148.3 25.7C148.2 25.5 148.2 25.4 148.2 25.3C148.2 25.2 148.1 25.1 148.1 25C148.1 24.9 148.1 24.9 148.1 24.9C148.1 24.8 148.1 24.7 148.2 24.6C148.3 24.5 148.3 24.5 148.5 24.4C148.6 24.4 148.8 24.3 149 24.3C149.2 24.3 149.5 24.3 149.8 24.3C150.2 24.3 150.5 24.3 150.7 24.3C150.9 24.3 151.1 24.4 151.2 24.4C151.3 24.5 151.4 24.5 151.5 24.6C151.6 24.7 151.6 24.8 151.7 24.9L156.7 39.5L156.8 39.7L156.9 39.5L161.9 24.9C161.9 24.8 162 24.7 162 24.6C162 24.5 162.2 24.5 162.3 24.4C162.4 24.3 162.6 24.3 162.8 24.3C163 24.3 163.3 24.3 163.7 24.3C164 24.3 164.3 24.3 164.5 24.3C164.7 24.3 164.9 24.3 165 24.4C165.1 24.5 165.2 24.5 165.2 24.6C165 24.5 165 24.6 165 24.7Z" fill="black"></path><path d="M182.7 32.9C182.7 33.4 182.6 33.8 182.3 34C182 34.2 181.7 34.3 181.4 34.3H169.7C169.7 35.3 169.8 36.2 170 37C170.2 37.8 170.5 38.5 171 39C171.5 39.6 172.1 40 172.8 40.3C173.5 40.6 174.4 40.8 175.5 40.8C176.3 40.8 177.1 40.7 177.8 40.6C178.5 40.5 179 40.3 179.5 40.1C180 39.9 180.4 39.8 180.7 39.6C181 39.5 181.2 39.4 181.4 39.4C181.5 39.4 181.6 39.4 181.6 39.5C181.7 39.5 181.7 39.6 181.8 39.7C181.8 39.8 181.9 39.9 181.9 40.1C181.9 40.3 181.9 40.5 181.9 40.7C181.9 40.9 181.9 41 181.9 41.1C181.9 41.2 181.9 41.3 181.9 41.4C181.9 41.5 181.8 41.6 181.8 41.7C181.8 41.8 181.7 41.9 181.6 41.9C181.5 42 181.3 42.1 181 42.3C180.6 42.5 180.2 42.6 179.6 42.8C179 43 178.4 43.1 177.6 43.2C176.9 43.3 176.1 43.4 175.2 43.4C173.7 43.4 172.5 43.2 171.4 42.8C170.3 42.4 169.4 41.8 168.6 41C167.8 40.2 167.3 39.2 166.9 38C166.5 36.8 166.3 35.4 166.3 33.8C166.3 32.3 166.5 30.9 166.9 29.7C167.3 28.5 167.9 27.4 168.6 26.6C169.3 25.8 170.2 25.1 171.3 24.6C172.4 24.1 173.5 23.9 174.8 23.9C176.2 23.9 177.4 24.1 178.4 24.6C179.4 25 180.2 25.7 180.8 26.4C181.4 27.2 181.9 28 182.2 29.1C182.5 30.1 182.6 31.2 182.6 32.4V32.9H182.7ZM179.4 31.9C179.4 30.2 179.1 28.8 178.3 27.9C177.5 26.9 176.3 26.4 174.7 26.4C173.9 26.4 173.2 26.6 172.6 26.9C172 27.2 171.5 27.6 171.1 28.1C170.7 28.6 170.4 29.2 170.1 29.8C169.9 30.5 169.7 31.2 169.7 31.9H179.4Z" fill="black"></path><path d="M198 37.7C198 38.6 197.8 39.4 197.5 40.1C197.2 40.8 196.7 41.4 196.1 41.9C195.5 42.4 194.7 42.8 193.9 43C193.1 43.2 192.1 43.4 191.1 43.4C190.5 43.4 189.9 43.3 189.3 43.3C188.7 43.2 188.2 43.1 187.8 42.9C187.3 42.7 187 42.6 186.6 42.4C186.3 42.2 186.1 42.1 185.9 42C185.7 41.9 185.6 41.7 185.6 41.4C185.6 41.1 185.5 40.8 185.5 40.4C185.5 40.1 185.5 39.9 185.5 39.8C185.5 39.6 185.6 39.5 185.6 39.4C185.6 39.3 185.7 39.2 185.8 39.2C185.9 39.2 186 39.1 186 39.1C186.1 39.1 186.4 39.2 186.6 39.4C186.9 39.6 187.2 39.8 187.6 40C188 40.2 188.5 40.4 189.1 40.6C189.7 40.8 190.3 40.9 191.1 40.9C191.7 40.9 192.2 40.8 192.6 40.7C193 40.6 193.4 40.4 193.8 40.2C194.1 40 194.4 39.7 194.6 39.3C194.8 38.9 194.9 38.5 194.9 38C194.9 37.5 194.8 37.1 194.5 36.7C194.2 36.4 193.9 36.1 193.5 35.8C193.1 35.5 192.6 35.3 192.1 35.1C191.6 34.9 191 34.7 190.5 34.5C189.9 34.3 189.4 34 188.9 33.7C188.4 33.4 187.9 33.1 187.5 32.7C187.1 32.3 186.7 31.8 186.5 31.2C186.2 30.6 186.1 30 186.1 29.2C186.1 28.5 186.2 27.8 186.5 27.2C186.8 26.6 187.2 26 187.7 25.5C188.2 25 188.9 24.6 189.7 24.3C190.5 24 191.5 23.9 192.5 23.9C193 23.9 193.4 23.9 193.9 24C194.4 24.1 194.8 24.2 195.2 24.3C195.6 24.4 195.9 24.5 196.2 24.7C196.5 24.8 196.7 25 196.8 25.1C196.9 25.2 197 25.3 197.1 25.4C197.1 25.5 197.2 25.6 197.2 25.7C197.2 25.8 197.2 25.9 197.3 26.1C197.3 26.2 197.3 26.4 197.3 26.6C197.3 26.8 197.3 27 197.3 27.2C197.3 27.4 197.2 27.5 197.2 27.6C197.2 27.7 197.1 27.8 197 27.8C196.9 27.8 196.9 27.9 196.8 27.9C196.7 27.9 196.5 27.8 196.3 27.7C196.1 27.6 195.8 27.4 195.4 27.2C195 27 194.6 26.9 194.1 26.7C193.6 26.6 193.1 26.5 192.5 26.5C191.9 26.5 191.5 26.6 191 26.7C190.6 26.8 190.2 27 190 27.2C189.7 27.4 189.5 27.7 189.4 28C189.3 28.3 189.2 28.7 189.2 29C189.2 29.5 189.3 29.9 189.6 30.3C189.9 30.6 190.2 31 190.6 31.2C191 31.4 191.5 31.7 192 31.9C192.5 32.1 193.1 32.3 193.6 32.6C194.2 32.8 194.7 33.1 195.3 33.4C195.8 33.7 196.3 34 196.8 34.4C197.2 34.8 197.6 35.3 197.8 35.8C197.9 36.3 198 36.9 198 37.7Z" fill="black"></path><path d="M210.6 41.2C210.6 41.6 210.6 41.9 210.5 42.1C210.4 42.3 210.4 42.5 210.3 42.6C210.2 42.7 210 42.8 209.8 42.9C209.6 43 209.3 43.1 209.1 43.1C208.8 43.2 208.5 43.2 208.2 43.2C207.9 43.2 207.6 43.3 207.3 43.3C206.4 43.3 205.6 43.2 204.9 42.9C204.2 42.7 203.7 42.3 203.3 41.8C202.9 41.3 202.6 40.7 202.4 39.9C202.2 39.1 202.1 38.3 202.1 37.2V26.9H199.6C199.4 26.9 199.2 26.8 199.1 26.6C199 26.4 198.9 26 198.9 25.6C198.9 25.3 198.9 25.1 199 25C199 24.8 199.1 24.7 199.1 24.6C199.2 24.5 199.2 24.4 199.3 24.4C199.4 24.4 199.5 24.3 199.6 24.3H202.1V20C202.1 19.9 202.1 19.8 202.2 19.7C202.2 19.6 202.3 19.6 202.5 19.5C202.6 19.4 202.8 19.4 203 19.4C203.2 19.4 203.5 19.4 203.8 19.4C204.1 19.4 204.4 19.4 204.6 19.4C204.8 19.4 205 19.5 205.1 19.5C205.2 19.6 205.3 19.6 205.4 19.7C205.5 19.8 205.5 19.9 205.5 20V24.2H210.1C210.2 24.2 210.3 24.2 210.4 24.3C210.5 24.3 210.5 24.4 210.6 24.5C210.7 24.6 210.7 24.8 210.7 24.9C210.7 25.1 210.7 25.3 210.7 25.5C210.7 26 210.6 26.3 210.5 26.5C210.4 26.7 210.2 26.8 210 26.8H205.4V36.7C205.4 37.9 205.6 38.8 205.9 39.5C206.3 40.1 206.9 40.4 207.8 40.4C208.1 40.4 208.4 40.4 208.6 40.3C208.8 40.2 209 40.2 209.2 40.1C209.4 40 209.5 40 209.7 39.9C209.8 39.8 210 39.8 210.1 39.8C210.2 39.8 210.2 39.8 210.3 39.8C210.4 39.8 210.4 39.9 210.4 40C210.4 40.1 210.5 40.2 210.5 40.4C210.6 40.8 210.6 41 210.6 41.2Z" fill="black"></path><path d="M227 42.5C227 42.7 226.9 42.8 226.8 42.9C226.7 43 226.5 43 226.4 43.1C226.2 43.1 225.9 43.2 225.6 43.2C225.3 43.2 225 43.2 224.8 43.1C224.6 43.1 224.4 43 224.4 42.9C224.3 42.8 224.3 42.7 224.3 42.5V40.7C223.5 41.5 222.7 42.2 221.7 42.6C220.7 43.1 219.7 43.3 218.7 43.3C217.8 43.3 216.9 43.2 216.2 42.9C215.4 42.7 214.8 42.3 214.3 41.8C213.8 41.3 213.4 40.8 213.1 40.1C212.8 39.4 212.7 38.7 212.7 37.8C212.7 36.8 212.9 35.9 213.3 35.2C213.7 34.5 214.3 33.9 215.1 33.4C215.9 32.9 216.8 32.5 217.9 32.3C219 32.1 220.2 31.9 221.6 31.9H224V30.5C224 29.8 223.9 29.2 223.8 28.7C223.7 28.2 223.4 27.7 223.1 27.4C222.8 27.1 222.4 26.8 221.8 26.6C221.3 26.4 220.7 26.3 219.9 26.3C219.1 26.3 218.4 26.4 217.7 26.6C217.1 26.8 216.5 27 216 27.2C215.5 27.4 215.1 27.6 214.8 27.8C214.5 28 214.2 28.1 214.1 28.1C214 28.1 213.9 28.1 213.8 28C213.7 27.9 213.7 27.9 213.6 27.8C213.5 27.7 213.5 27.6 213.5 27.4C213.5 27.2 213.5 27.1 213.5 26.9C213.5 26.6 213.5 26.3 213.6 26.1C213.6 25.9 213.8 25.7 213.9 25.6C214.1 25.4 214.4 25.2 214.8 25C215.2 24.8 215.7 24.6 216.3 24.4C216.9 24.2 217.5 24.1 218.2 23.9C218.9 23.8 219.5 23.7 220.2 23.7C221.5 23.7 222.6 23.8 223.5 24.1C224.4 24.4 225.1 24.8 225.7 25.4C226.3 26 226.7 26.7 226.9 27.5C227.2 28.3 227.3 29.3 227.3 30.4V42.5H227ZM223.8 34.4H221C220.1 34.4 219.3 34.5 218.7 34.6C218 34.8 217.5 35 217.1 35.3C216.7 35.6 216.3 36 216.1 36.4C215.9 36.8 215.8 37.3 215.8 37.8C215.8 38.7 216.1 39.5 216.7 40C217.3 40.5 218.1 40.8 219.2 40.8C220.1 40.8 220.8 40.6 221.6 40.1C222.3 39.7 223.1 39 223.9 38.1V34.4H223.8Z" fill="black"></path><path d="M132.3 77.8C132.3 77.9 132.3 78 132.2 78.1C132.1 78.2 132.1 78.2 131.9 78.3C131.8 78.4 131.6 78.4 131.4 78.4C131.2 78.4 130.9 78.4 130.6 78.4C130.2 78.4 130 78.4 129.7 78.4C129.5 78.4 129.3 78.3 129.1 78.3C128.9 78.3 128.8 78.2 128.7 78.1C128.6 78 128.5 77.9 128.4 77.8L121 68V77.9C121 78 121 78.1 120.9 78.2C120.8 78.3 120.8 78.3 120.6 78.4C120.5 78.5 120.3 78.5 120.1 78.5C119.9 78.5 119.6 78.5 119.3 78.5C119 78.5 118.7 78.5 118.5 78.5C118.3 78.5 118.1 78.4 118 78.4C117.9 78.3 117.8 78.3 117.7 78.2C117.7 78.1 117.6 78 117.6 77.9V51.4C117.6 51.3 117.6 51.2 117.7 51.1C117.7 51 117.8 51 118 50.9C118.1 50.8 118.3 50.8 118.5 50.8C118.7 50.8 119 50.8 119.3 50.8C119.6 50.8 119.9 50.8 120.1 50.8C120.3 50.8 120.5 50.9 120.6 50.9C120.7 51 120.8 51 120.9 51.1C121 51.2 121 51.3 121 51.4V67.5L127.7 60.1C127.8 60 127.9 59.9 128 59.8C128.1 59.7 128.3 59.6 128.4 59.6C128.6 59.5 128.8 59.5 129 59.5C129.2 59.5 129.5 59.5 129.8 59.5C130.1 59.5 130.4 59.5 130.6 59.5C130.8 59.5 131 59.6 131.1 59.6C131.2 59.6 131.3 59.7 131.4 59.8C131.5 59.9 131.5 60 131.5 60.1C131.5 60.3 131.5 60.4 131.4 60.6C131.3 60.8 131.2 60.9 131 61.2L124.6 67.6L131.8 77C132 77.2 132.1 77.4 132.2 77.5C132.3 77.6 132.3 77.7 132.3 77.8Z" fill="black"></path><path d="M150.4 68.7C150.4 70.1 150.2 71.5 149.8 72.7C149.4 73.9 148.8 75 148.1 75.8C147.3 76.7 146.4 77.4 145.3 77.9C144.2 78.4 142.8 78.6 141.3 78.6C139.8 78.6 138.6 78.4 137.5 77.9C136.4 77.5 135.5 76.8 134.8 76C134.1 75.2 133.5 74.2 133.2 73C132.8 71.8 132.7 70.5 132.7 69C132.7 67.6 132.9 66.2 133.3 65C133.7 63.8 134.2 62.7 135 61.9C135.8 61 136.7 60.3 137.8 59.8C138.9 59.3 140.3 59.1 141.8 59.1C143.3 59.1 144.5 59.3 145.6 59.8C146.7 60.2 147.6 60.9 148.3 61.7C149 62.5 149.6 63.5 149.9 64.7C150.3 65.9 150.4 67.3 150.4 68.7ZM147.1 69C147.1 68 147 67.1 146.8 66.3C146.6 65.4 146.3 64.7 145.9 64C145.5 63.4 144.9 62.8 144.2 62.5C143.5 62.1 142.6 61.9 141.6 61.9C140.6 61.9 139.8 62.1 139.1 62.4C138.4 62.7 137.8 63.2 137.4 63.9C136.9 64.5 136.6 65.3 136.4 66.1C136.2 67 136.1 67.9 136.1 68.9C136.1 69.9 136.2 70.8 136.4 71.6C136.6 72.5 136.9 73.2 137.3 73.8C137.7 74.4 138.3 74.9 139 75.3C139.7 75.7 140.6 75.9 141.6 75.9C142.6 75.9 143.4 75.7 144.1 75.4C144.8 75.1 145.4 74.6 145.8 74C146.3 73.4 146.6 72.6 146.8 71.8C147 70.9 147.1 70 147.1 69Z" fill="black"></path><path d="M180.8 77.8C180.8 77.9 180.8 78 180.7 78.1C180.6 78.2 180.6 78.2 180.4 78.3C180.3 78.4 180.1 78.4 179.9 78.4C179.7 78.4 179.4 78.4 179.1 78.4C178.8 78.4 178.5 78.4 178.3 78.4C178.1 78.4 177.9 78.3 177.8 78.3C177.7 78.2 177.6 78.2 177.5 78.1C177.4 78 177.4 77.9 177.4 77.8V67C177.4 66.2 177.3 65.6 177.2 64.9C177.1 64.3 176.9 63.7 176.6 63.3C176.3 62.9 175.9 62.5 175.5 62.3C175.1 62.1 174.5 61.9 173.9 61.9C173.1 61.9 172.4 62.2 171.6 62.8C170.8 63.4 170 64.2 169.1 65.3V77.7C169.1 77.8 169.1 77.9 169 78C168.9 78.1 168.9 78.1 168.7 78.2C168.6 78.3 168.4 78.3 168.2 78.3C168 78.3 167.7 78.3 167.4 78.3C167.1 78.3 166.8 78.3 166.6 78.3C166.4 78.3 166.2 78.2 166.1 78.2C166 78.1 165.9 78.1 165.8 78C165.8 77.9 165.7 77.8 165.7 77.7V67C165.7 66.2 165.6 65.6 165.5 64.9C165.4 64.3 165.1 63.7 164.8 63.3C164.5 62.9 164.1 62.5 163.7 62.3C163.3 62.1 162.7 61.9 162.1 61.9C161.3 61.9 160.6 62.2 159.8 62.8C159 63.4 158.2 64.2 157.3 65.3V77.7C157.3 77.8 157.3 77.9 157.2 78C157.1 78.1 157.1 78.1 156.9 78.2C156.8 78.3 156.6 78.3 156.4 78.3C156.2 78.3 155.9 78.3 155.6 78.3C155.3 78.3 155 78.3 154.8 78.3C154.6 78.3 154.4 78.2 154.3 78.2C154.2 78.1 154.1 78.1 154 78C154 77.9 153.9 77.8 153.9 77.7V60.1C153.9 60 153.9 59.9 154 59.8C154 59.7 154.1 59.7 154.2 59.6C154.3 59.5 154.5 59.5 154.7 59.5C154.9 59.5 155.1 59.5 155.4 59.5C155.7 59.5 155.9 59.5 156.1 59.5C156.3 59.5 156.4 59.6 156.5 59.6C156.6 59.7 156.7 59.7 156.7 59.8C156.7 59.9 156.8 60 156.8 60.1V62.4C157.8 61.3 158.8 60.5 159.7 59.9C160.6 59.4 161.6 59.1 162.6 59.1C163.3 59.1 164 59.2 164.6 59.4C165.2 59.6 165.7 59.8 166.1 60.1C166.5 60.4 166.9 60.8 167.2 61.2C167.5 61.6 167.8 62.1 168 62.6C168.6 62 169.2 61.4 169.7 61C170.2 60.6 170.7 60.2 171.2 59.9C171.7 59.6 172.2 59.4 172.6 59.3C173.1 59.2 173.5 59.1 174 59.1C175.1 59.1 176.1 59.3 176.9 59.7C177.7 60.1 178.3 60.6 178.8 61.3C179.3 62 179.6 62.8 179.8 63.7C180 64.6 180.1 65.6 180.1 66.6V77.8H180.8Z" fill="black"></path><path d="M212.3 77.8C212.3 77.9 212.3 78 212.2 78.1C212.1 78.2 212.1 78.2 211.9 78.3C211.8 78.4 211.6 78.4 211.4 78.4C211.2 78.4 210.9 78.4 210.6 78.4C210.3 78.4 210 78.4 209.8 78.4C209.6 78.4 209.4 78.3 209.3 78.3C209.2 78.2 209.1 78.2 209 78.1C208.9 78 208.9 77.9 208.9 77.8V67C208.9 66.2 208.8 65.6 208.7 64.9C208.6 64.2 208.4 63.7 208.1 63.3C207.8 62.9 207.4 62.5 207 62.3C206.6 62.1 206 61.9 205.4 61.9C204.6 61.9 203.9 62.2 203.1 62.8C202.3 63.4 201.5 64.2 200.6 65.3V77.7C200.6 77.8 200.6 77.9 200.5 78C200.4 78.1 200.4 78.1 200.2 78.2C200.1 78.3 199.9 78.3 199.7 78.3C199.5 78.3 199.2 78.3 198.9 78.3C198.6 78.3 198.3 78.3 198.1 78.3C197.9 78.3 197.7 78.2 197.6 78.2C197.5 78.1 197.4 78.1 197.3 78C197.3 77.9 197.2 77.8 197.2 77.7V67C197.2 66.2 197.1 65.6 197 64.9C196.9 64.3 196.6 63.7 196.3 63.3C196 62.9 195.6 62.5 195.2 62.3C194.8 62.1 194.2 61.9 193.6 61.9C192.8 61.9 192.1 62.2 191.3 62.8C190.5 63.4 189.7 64.2 188.8 65.3V77.7C188.8 77.8 188.8 77.9 188.7 78C188.6 78.1 188.6 78.1 188.4 78.2C188.3 78.3 188.1 78.3 187.9 78.3C187.7 78.3 187.4 78.3 187.1 78.3C186.8 78.3 186.5 78.3 186.3 78.3C186.1 78.3 185.9 78.2 185.8 78.2C185.7 78.1 185.6 78.1 185.5 78C185.5 77.9 185.4 77.8 185.4 77.7V60.1C185.4 60 185.4 59.9 185.5 59.8C185.5 59.7 185.6 59.7 185.7 59.6C185.8 59.5 186 59.5 186.2 59.5C186.4 59.5 186.6 59.5 186.9 59.5C187.2 59.5 187.4 59.5 187.6 59.5C187.8 59.5 187.9 59.6 188 59.6C188.1 59.7 188.2 59.7 188.2 59.8C188.2 59.9 188.3 60 188.3 60.1V62.4C189.3 61.3 190.3 60.5 191.2 59.9C192.1 59.4 193.1 59.1 194.1 59.1C194.8 59.1 195.5 59.2 196.1 59.4C196.7 59.6 197.2 59.8 197.6 60.1C198 60.4 198.4 60.8 198.7 61.2C199 61.6 199.3 62.1 199.5 62.6C200.1 62 200.7 61.4 201.2 61C201.7 60.6 202.2 60.2 202.7 59.9C203.2 59.6 203.7 59.4 204.1 59.3C204.6 59.2 205 59.1 205.5 59.1C206.6 59.1 207.6 59.3 208.4 59.7C209.2 60.1 209.8 60.6 210.3 61.3C210.8 62 211.1 62.8 211.3 63.7C211.5 64.6 211.6 65.6 211.6 66.6V77.8H212.3Z" fill="black"></path><path d="M232.6 77.8C232.6 77.9 232.6 78 232.5 78.1C232.5 78.2 232.4 78.2 232.3 78.3C232.2 78.4 232 78.4 231.8 78.4C231.6 78.4 231.4 78.4 231.1 78.4C230.8 78.4 230.6 78.4 230.4 78.4C230.2 78.4 230.1 78.3 229.9 78.3C229.8 78.2 229.7 78.2 229.7 78.1C229.7 78 229.6 77.9 229.6 77.8V75.5C228.6 76.6 227.6 77.4 226.6 77.9C225.6 78.4 224.6 78.7 223.6 78.7C222.4 78.7 221.4 78.5 220.6 78.1C219.8 77.7 219.1 77.2 218.6 76.5C218.1 75.8 217.7 75 217.5 74.1C217.3 73.2 217.2 72.1 217.2 70.8V60.1C217.2 60 217.2 59.9 217.3 59.8C217.3 59.7 217.4 59.7 217.6 59.6C217.7 59.5 217.9 59.5 218.1 59.5C218.3 59.5 218.6 59.5 218.9 59.5C219.2 59.5 219.5 59.5 219.7 59.5C219.9 59.5 220.1 59.6 220.2 59.6C220.3 59.7 220.4 59.7 220.5 59.8C220.6 59.9 220.6 60 220.6 60.1V70.4C220.6 71.4 220.7 72.3 220.8 72.9C221 73.5 221.2 74.1 221.5 74.5C221.8 74.9 222.2 75.3 222.7 75.5C223.2 75.7 223.7 75.9 224.4 75.9C225.2 75.9 226 75.6 226.8 75C227.6 74.4 228.5 73.6 229.4 72.5V60.1C229.4 60 229.4 59.9 229.5 59.8C229.5 59.7 229.6 59.7 229.8 59.6C229.9 59.5 230.1 59.5 230.3 59.5C230.5 59.5 230.8 59.5 231.1 59.5C231.4 59.5 231.7 59.5 231.9 59.5C232.1 59.5 232.3 59.6 232.4 59.6C232.5 59.7 232.6 59.7 232.7 59.8C232.8 59.9 232.8 60 232.8 60.1V77.8H232.6Z" fill="black"></path><path d="M253.1 77.8C253.1 77.9 253.1 78 253 78.1C252.9 78.2 252.9 78.2 252.7 78.3C252.6 78.4 252.4 78.4 252.2 78.4C252 78.4 251.7 78.4 251.4 78.4C251.1 78.4 250.8 78.4 250.6 78.4C250.4 78.4 250.2 78.3 250.1 78.3C250 78.2 249.9 78.2 249.8 78.1C249.7 78 249.7 77.9 249.7 77.8V67.4C249.7 66.4 249.6 65.6 249.5 65C249.3 64.4 249.1 63.8 248.8 63.4C248.5 63 248.1 62.6 247.6 62.4C247.1 62.2 246.6 62 245.9 62C245.1 62 244.3 62.3 243.5 62.9C242.7 63.5 241.8 64.3 240.9 65.4V77.8C240.9 77.9 240.9 78 240.8 78.1C240.7 78.2 240.7 78.2 240.5 78.3C240.4 78.4 240.2 78.4 240 78.4C239.8 78.4 239.5 78.4 239.2 78.4C238.9 78.4 238.6 78.4 238.4 78.4C238.2 78.4 238 78.3 237.9 78.3C237.8 78.2 237.7 78.2 237.6 78.1C237.6 78 237.5 77.9 237.5 77.8V60.1C237.5 60 237.5 59.9 237.6 59.8C237.6 59.7 237.7 59.7 237.8 59.6C237.9 59.5 238.1 59.5 238.3 59.5C238.5 59.5 238.7 59.5 239 59.5C239.3 59.5 239.5 59.5 239.7 59.5C239.9 59.5 240 59.6 240.1 59.6C240.2 59.7 240.3 59.7 240.3 59.8C240.3 59.9 240.4 60 240.4 60.1V62.4C241.4 61.3 242.4 60.5 243.4 59.9C244.4 59.4 245.4 59.1 246.4 59.1C247.6 59.1 248.6 59.3 249.4 59.7C250.2 60.1 250.9 60.6 251.4 61.3C251.9 62 252.3 62.8 252.5 63.7C252.7 64.6 252.8 65.7 252.8 66.9V77.8H253.1Z" fill="black"></path></g><defs><clipPath id="clip0"><rect width="253.1" height="106" fill="white"></rect></clipPath></defs></svg>